<svg xmlns="http://www.w3.org/2000/svg" width="441" height="512" viewBox="0 0 441 512">
  <g id="BeerJsLogo-noletter" transform="translate(-67)">
    <g id="Grupo_64" data-name="Grupo 64" transform="translate(67)">
      <g id="beer_5_" data-name="beer (5)">
        <path id="Trazado_73" data-name="Trazado 73" d="M366.39,125.45,86.5,126V462a40,40,0,0,0,40,40h200a40,40,0,0,0,40-40V125.65Z" transform="translate(-35.5)" fill="#b5cde3"/>
        <path id="Trazado_74" data-name="Trazado 74" d="M366.5,462V125.65l-.11-.2L86.5,126V462Z" transform="translate(-35.5)" fill="#fbde34"/>
        <path id="Trazado_75" data-name="Trazado 75" d="M466.5,211V382a40,40,0,0,1-40,40h-60V382h60V211h-60V171h60A40,40,0,0,1,466.5,211Z" transform="translate(-35.5)" fill="#b5cde3"/>
        <path id="Trazado_77" data-name="Trazado 77" d="M286,451.29a10,10,0,1,0,10,10A10,10,0,0,0,286,451.29Z" transform="translate(-35.5)" fill="#343433"/>
        <path id="Trazado_90" data-name="Trazado 90" d="M361.244,140.145,364.5,452.667H322.167V140.145Z" transform="translate(-41.167)" fill="#f4ac03"/>
        <path id="Trazado_80" data-name="Trazado 80" d="M126.5,512h200a50.057,50.057,0,0,0,50-50V432h50a50.057,50.057,0,0,0,50-50V211a50.057,50.057,0,0,0-50-50h-50V130.741a49.826,49.826,0,0,0-19.061-88.569,50.555,50.555,0,0,0-28.7,2.063A50.083,50.083,0,0,0,286.5,21a49.343,49.343,0,0,0-18.852,3.711A89.484,89.484,0,0,0,130.97,40.579C78.7,37.687,35.5,79.156,35.5,130.29v120c0,16.542,13.682,30,30.5,30A29.973,29.973,0,0,0,76.5,278.4V462A50.057,50.057,0,0,0,126.5,512Zm200-20h-200a30.048,30.048,0,0,1-28.28-20H246.01a10,10,0,1,0,0-20H96.5V179.506A69.426,69.426,0,0,0,148.64,141a7.408,7.408,0,0,1,5.309,2.081A59.99,59.99,0,0,0,239.135,142,3.3,3.3,0,0,1,241.5,141c15.567,0,25.753,3.325,30.277,9.881,3.729,5.4,3.726,12.915,3.723,18.95v40.459c.2,25.709,24,29.509,30,29.709,6.6-.2,29.8-2.2,30-29.71V139.826a53.062,53.062,0,0,0,21,.007V452H325.99a9.95,9.95,0,1,0,0,19.9h28.79A30.138,30.138,0,0,1,326.5,492Zm50-271h40V372h-40Zm50-40a30.034,30.034,0,0,1,30,30V382a30.034,30.034,0,0,1-30,30h-50V392h50a10,10,0,0,0,10-10V211a10,10,0,0,0-10-10h-50V181ZM66,260.29c-5.691,0-10.5-4.58-10.5-10v-120c0-38.6,31.582-69.852,70.407-69.852a71.334,71.334,0,0,1,9.081.581,10,10,0,0,0,9.993-5.026A69.593,69.593,0,0,1,258.187,43.637a10,10,0,0,0,12.8,1.785A28.946,28.946,0,0,1,286.5,41a30.028,30.028,0,0,1,28.313,20.057,10,10,0,0,0,15.006,5,30,30,0,0,1,45.875,17.852c5.692,25.264-20.2,45.988-45.661,33.039A10,10,0,0,0,315.5,125.86v84.43a10,10,0,1,1-20,0V169.838c0-7.876.008-19.779-7.261-30.315C279.759,127.232,264.034,121,241.5,121a23.394,23.394,0,0,0-16.749,7.1,39.989,39.989,0,0,1-56.786.714A27.388,27.388,0,0,0,148.64,121a20.091,20.091,0,0,0-17.946,11.2,49.563,49.563,0,0,1-44.28,28.089,10,10,0,0,0-9.915,10v79.525C76.147,255.705,71.568,260.29,66,260.29Z" transform="translate(-35.5)" fill="#343433"/>
        <g id="Grupo_35" data-name="Grupo 35" transform="translate(191.782 190.154)">
          <circle id="Elipse_3" data-name="Elipse 3" cx="10.651" cy="10.651" r="10.651" fill="#f4ac03"/>
        </g>
        <g id="Grupo_36" data-name="Grupo 36" transform="translate(157.993 381.081)">
          <circle id="Elipse_4" data-name="Elipse 4" cx="10.651" cy="10.651" r="10.651" fill="#f4ac03"/>
        </g>
        <circle id="Elipse_21" data-name="Elipse 21" cx="10.651" cy="10.651" r="10.651" transform="translate(152.237 253.633)" fill="#f4ac03"/>
        <g id="Grupo_37" data-name="Grupo 37" transform="translate(81.548 207.293)">
          <circle id="Elipse_6" data-name="Elipse 6" cx="6.727" cy="6.727" r="6.727" fill="#f4ac03"/>
        </g>
        <g id="Grupo_38" data-name="Grupo 38" transform="translate(207.392 309.276)">
          <circle id="Elipse_7" data-name="Elipse 7" cx="6.727" cy="6.727" r="6.727" fill="#f4ac03"/>
        </g>
        <g id="Grupo_39" data-name="Grupo 39" transform="translate(104.367 336.408)">
          <circle id="Elipse_8" data-name="Elipse 8" cx="6.727" cy="6.727" r="6.727" fill="#f4ac03"/>
        </g>
        <path id="Trazado_76" data-name="Trazado 76" d="M385.45,81.71c7.61,33.773-27.227,60.794-59.95,44.15v84.43a20,20,0,0,1-40,0v-40c0-13.81.5-39.29-44-39.29a13.28,13.28,0,0,0-9.56,4.05,49.989,49.989,0,0,1-70.98.9A17.423,17.423,0,0,0,148.64,131a9.971,9.971,0,0,0-8.96,5.59,59.712,59.712,0,0,1-53.18,33.7v79.78c-.5,11.26-9.45,20.22-20.5,20.22s-20.5-8.96-20.5-20v-120c0-47.57,42.01-85.44,90.76-79.19A79.592,79.592,0,0,1,265.64,36.97,38.866,38.866,0,0,1,286.5,31a40,40,0,0,1,37.75,26.75,40,40,0,0,1,61.2,23.96Z" transform="translate(-35.5)" fill="#fff"/>
        <path id="Trazado_91" data-name="Trazado 91" d="M126.5,512h200a50.057,50.057,0,0,0,50-50V432h50a50.057,50.057,0,0,0,50-50V211a50.057,50.057,0,0,0-50-50h-50V130.741a49.826,49.826,0,0,0-19.061-88.569,50.555,50.555,0,0,0-28.7,2.063A50.083,50.083,0,0,0,286.5,21a49.343,49.343,0,0,0-18.852,3.711A89.484,89.484,0,0,0,130.97,40.579C78.7,37.687,35.5,79.156,35.5,130.29v120c0,16.542,13.682,30,30.5,30A29.973,29.973,0,0,0,76.5,278.4V462A50.057,50.057,0,0,0,126.5,512Zm200-20h-200a30.048,30.048,0,0,1-28.28-20H246.01a10,10,0,1,0,0-20H96.5V179.506A69.426,69.426,0,0,0,148.64,141a7.408,7.408,0,0,1,5.309,2.081A59.99,59.99,0,0,0,239.135,142,3.3,3.3,0,0,1,241.5,141c15.567,0,25.753,3.325,30.277,9.881,3.729,5.4,3.726,12.915,3.723,18.95v40.459c.2,25.709,24,29.509,30,29.709,6.6-.2,29.8-2.2,30-29.71V139.826a53.062,53.062,0,0,0,21,.007V452H325.99a9.95,9.95,0,1,0,0,19.9h28.79A30.138,30.138,0,0,1,326.5,492Zm50-271h40V372h-40Zm50-40a30.034,30.034,0,0,1,30,30V382a30.034,30.034,0,0,1-30,30h-50V392h50a10,10,0,0,0,10-10V211a10,10,0,0,0-10-10h-50V181ZM66,260.29c-5.691,0-10.5-4.58-10.5-10v-120c0-38.6,31.582-69.852,70.407-69.852a71.334,71.334,0,0,1,9.081.581,10,10,0,0,0,9.993-5.026A69.593,69.593,0,0,1,258.187,43.637a10,10,0,0,0,12.8,1.785A28.946,28.946,0,0,1,286.5,41a30.028,30.028,0,0,1,28.313,20.057,10,10,0,0,0,15.006,5,30,30,0,0,1,45.875,17.852c5.692,25.264-20.2,45.988-45.661,33.039A10,10,0,0,0,315.5,125.86v84.43a10,10,0,1,1-20,0V169.838c0-7.876.008-19.779-7.261-30.315C279.759,127.232,264.034,121,241.5,121a23.394,23.394,0,0,0-16.749,7.1,39.989,39.989,0,0,1-56.786.714A27.388,27.388,0,0,0,148.64,121a20.091,20.091,0,0,0-17.946,11.2,49.563,49.563,0,0,1-44.28,28.089,10,10,0,0,0-9.915,10v79.525C76.147,255.705,71.568,260.29,66,260.29Z" transform="translate(-35.5)" fill="#343433"/>
      </g>
      <g id="Grupo_40" data-name="Grupo 40" transform="translate(80.412 313.327)">
        <path id="Trazado_88" data-name="Trazado 88" d="M546.6,574.886l19.391-11.737c3.776,6.634,7.144,12.247,15.308,12.247,7.859,0,12.757-3.062,12.757-14.9v-80.83H617.73V560.8c0,24.6-14.39,35.822-35.516,35.822-18.982,0-30-9.9-35.617-21.738" transform="translate(-546.597 -478.135)" fill="#343433"/>
        <path id="Trazado_89" data-name="Trazado 89" d="M684.169,571.362l19.391-11.226c5.1,8.368,11.737,14.39,23.473,14.39,9.8,0,16.126-4.9,16.126-11.737,0-8.164-6.43-11.022-17.35-15.819l-5.92-2.552c-17.146-7.246-28.474-16.432-28.474-35.823,0-17.86,13.573-31.433,34.8-31.433,15.1,0,26.024,5.307,33.781,18.983l-18.473,11.839c-4.082-7.246-8.471-10.206-15.308-10.206-6.941,0-11.328,4.389-11.328,10.206,0,7.144,4.388,10,14.594,14.39l5.92,2.552c20.208,8.674,31.536,17.452,31.536,37.352,0,21.433-16.84,33.067-39.394,33.067-22.147.306-36.435-10.205-43.375-23.983" transform="translate(-600.074 -477.162)" fill="#343433"/>
      </g>
      <path id="Trazado_93" data-name="Trazado 93" d="M275.522,52.2c3.8-.2,6.4-4.017,6.4-8.2,0-6-4.769-12.282-9.4-15.6a20.042,20.042,0,0,0-13-4.2c-4.183,0-9.6,3.817-9.6,8s3.417,6.8,7.6,6.8c4.051,0,9.2,3,10.4,7.2C268.722,50.6,271.722,52.4,275.522,52.2Z" transform="translate(-69.122 9)" fill="#343433"/>
      <circle id="Elipse_22" data-name="Elipse 22" cx="9.326" cy="9.326" r="9.326" transform="translate(190.271 72.988)" fill="#343433"/>
      <path id="Trazado_94" data-name="Trazado 94" d="M228.136,52.337a7.574,7.574,0,0,0-7.574-7.574,16.918,16.918,0,0,0-16.9,16.9,7.574,7.574,0,0,0,7.574,7.574c4.183,0,6.346-3.391,6.346-7.574,0-.965,2.014-3.242,2.979-3.242C224.746,58.42,228.136,56.521,228.136,52.337Z" transform="translate(-80.122 -6)" fill="#343433"/>
      <circle id="Elipse_23" data-name="Elipse 23" cx="6.528" cy="6.528" r="6.528" transform="translate(122.508 74.314)" fill="#343433"/>
      <path id="Trazado_95" data-name="Trazado 95" d="M18.4,5.694A5.694,5.694,0,0,0,12.7,0,12.718,12.718,0,0,0,0,12.7a5.694,5.694,0,0,0,11.387,0A1.318,1.318,0,0,1,12.7,11.387,5.693,5.693,0,0,0,18.4,5.694Z" transform="translate(329.034 69.876) rotate(95)" fill="#343433"/>
      <circle id="Elipse_24" data-name="Elipse 24" cx="5.03" cy="5.03" r="5.03" transform="translate(315.508 95.314)" fill="#343433"/>
      <path id="Trazado_96" data-name="Trazado 96" d="M6.76,7.966C3.524,11.656,0,17.169,0,22.266c0,4.183,2.577,5.46,6.76,5.46,4.16-1.3,3.64-3.38,5.46-8.84,2.86-4.94,4.42-6.5,8.58-7.8,3.64-1.82,5.783-3.184,5.2-6.76C24.835,1.607,22.091-.64,17.42.166,13.3.875,8.292,6.216,6.76,7.966Z" transform="translate(28.349 85.687) rotate(-7)" fill="#343433"/>
      <circle id="Elipse_25" data-name="Elipse 25" cx="5.03" cy="5.03" r="5.03" transform="translate(28.508 118.314)" fill="#343433"/>
    </g>
  </g>
</svg>
